<svg width="101" height="36" viewBox="0 0 101 36" fill="none" xmlns="http://www.w3.org/2000/svg">
<path d="M89.3398 15.3487L93.3819 25.8252L97.416 15.35H101L93.9574 32.9948C93.0848 34.8527 91.3899 35.9894 89.3174 36L89.3161 35.9987C88.1874 36.004 87.1617 35.8664 86.1716 35.3027L86.9927 32.4761C88.553 33.1245 90.157 33.3138 90.9398 31.7801L91.5918 30.1947L85.6542 15.3434L89.3398 15.3487Z" fill="#464646" style="fill:#464646;fill:color(display-p3 0.2745 0.2745 0.2745);fill-opacity:1;"/>
<path fill-rule="evenodd" clip-rule="evenodd" d="M64.6809 17.1895C66.4261 14.6739 70.0839 14.339 72.6752 15.7152C76.1008 17.5348 77.013 22.1968 75.7259 25.7379C75.1359 27.3616 74.0269 28.6611 72.5234 29.4842C70.9472 30.2649 69.1823 30.429 67.4834 29.9936C66.3851 29.7104 65.5231 29.1387 64.6941 28.231L64.6757 35.9154H61.2329L61.2289 15.3394L64.6359 15.346L64.6809 17.1895ZM70.1578 18.1779C69.173 17.7968 68.0523 17.8444 67.0926 18.2798C64.7429 19.3477 64.1344 22.5461 65.1667 24.8871C65.7884 26.2977 67.1059 27.171 68.5804 27.2173C70.0813 27.2636 71.4198 26.4908 72.1538 25.1V25.1014C72.8204 23.8377 72.8825 22.4283 72.5591 21.064C72.2515 19.7672 71.4158 18.6662 70.1578 18.1779Z" fill="#464646" style="fill:#464646;fill:color(display-p3 0.2745 0.2745 0.2745);fill-opacity:1;"/>
<path d="M7.80965 21.2573C6.33916 28.7246 16.1525 33.6922 21.4671 28.3898C22.5244 27.4092 23.2676 26.2011 23.7032 24.8315C23.7732 24.6118 23.8287 24.3855 23.8696 24.1579C24.1376 22.6441 26.6047 22.8518 26.5164 24.4821L26.5176 24.4835V24.4848C24.2999 36.9872 4.73254 35.4839 5.00051 22.5673L7.80965 21.2573Z" fill="#464646" style="fill:#464646;fill:color(display-p3 0.2745 0.2745 0.2745);fill-opacity:1;"/>
<path d="M36.3257 3.91545C44.2065 0.7369 53.0392 -0.758349 61.4889 0.378351C64.9158 0.838857 68.2187 1.75588 71.3499 3.20754C74.2264 4.55616 76.8928 6.28512 79.1804 8.52449H82.614V25.4626C82.6866 25.9523 82.8042 26.3532 83.1566 26.6642C83.447 26.8759 83.8074 26.9539 84.1704 26.9751C84.7235 27.0003 85.2173 26.9196 85.8509 26.7978L85.8495 26.7991L85.8839 29.7038C83.3019 30.3998 80.4452 30.1008 79.4539 27.3986C79.236 26.77 79.1687 26.1733 79.1397 25.4891L79.1357 8.57812C77.9855 7.80957 76.9159 7.029 75.6942 6.39533H75.6929C66.5937 1.27948 56.3156 0.662776 46.2673 3.09498C40.8246 4.41298 35.6367 6.49321 30.7472 9.16494C30.1531 9.49047 29.4601 9.23383 29.1591 8.7204C28.8475 8.18711 29.0139 7.42347 29.608 7.10324C31.7953 5.92287 34.0064 4.84968 36.3257 3.91545Z" fill="#464646" style="fill:#464646;fill:color(display-p3 0.2745 0.2745 0.2745);fill-opacity:1;"/>
<path d="M37.5284 15.3369L40.8813 15.3434L40.8853 18.1105L37.5297 18.1184L37.5349 25.2165C37.5349 25.6822 37.659 26.1004 37.9045 26.467C38.2108 26.7925 38.6306 26.9394 39.0794 26.9672C39.6708 27.0069 40.1976 26.9276 40.8721 26.7939H40.8734L40.9157 29.6813C39.8002 30.0333 38.62 30.11 37.4478 29.9141C35.3291 29.5595 34.211 27.7215 34.2071 25.6149L34.1912 18.1211L31.6382 18.1105L31.6329 15.3422H34.1965V11.1221H37.5218L37.5284 15.3369Z" fill="#464646" style="fill:#464646;fill:color(display-p3 0.2745 0.2745 0.2745);fill-opacity:1;"/>
<path d="M47.1979 16.838C48.2067 15.2793 50.0236 14.6278 51.8023 15.1066L51.7231 18.1476L50.1496 18.1092C48.3055 18.2283 47.2177 19.934 47.2137 21.7495L47.1979 29.9368H43.7486V15.3434L47.0883 15.3394V15.3434H47.1979V16.838Z" fill="#464646" style="fill:#464646;fill:color(display-p3 0.2745 0.2745 0.2745);fill-opacity:1;"/>
<path d="M57.7333 29.9368H54.284V15.3434H57.7333V29.9368Z" fill="#464646" style="fill:#464646;fill:color(display-p3 0.2745 0.2745 0.2745);fill-opacity:1;"/>
<path d="M14.2384 18.2362C13.9493 19.1612 13.7156 20.0967 13.5902 21.072C13.3368 23.0477 13.9361 25.0788 15.9782 25.1887C16.5247 25.2191 16.9644 25.554 17.132 25.996C17.3274 26.5134 17.2323 27.0903 16.7874 27.4463C16.4363 27.7268 16.0284 27.6791 15.6298 27.6527L15.6311 27.6541C14.0774 27.5522 12.6821 26.8415 11.8227 25.5262C10.9647 24.2135 10.6716 22.6573 10.9224 21.1091C10.9937 20.6684 11.0927 20.2317 11.226 19.8136L14.2384 18.2362Z" fill="#464646" style="fill:#464646;fill:color(display-p3 0.2745 0.2745 0.2745);fill-opacity:1;"/>
<path d="M11.0398 3.9988C12.5658 3.16512 14.4813 3.42717 15.6469 4.82986C16.4548 5.80247 16.6792 7.13638 16.3162 8.34718L14.9539 12.8822C14.8588 13.1971 14.6489 13.4512 14.3876 13.6484C14.0021 13.9408 13.47 13.9315 13.0595 13.6656C12.7097 13.4393 12.3758 12.9099 12.5236 12.415L13.9558 7.589C14.0786 7.17614 13.9229 6.74993 13.68 6.48527C13.4014 6.17962 12.9909 6.06722 12.5579 6.13338C12.088 6.20485 11.6656 6.57533 11.5046 7.05038L9.9772 11.5946C9.49538 13.0277 8.50403 14.1101 7.1259 14.7096L3.53786 16.267C3.0917 16.4602 2.78808 16.8559 2.65739 17.3085C2.52406 17.7716 2.66533 18.2798 3.05341 18.5974V18.5948C3.62896 19.0659 4.32077 19.0499 4.96364 18.7482L25.3362 9.20474C25.8127 8.9811 26.3672 9.06843 26.7395 9.38734C27.0827 9.68111 27.216 10.1139 27.1447 10.5717C27.0945 10.8946 26.8938 11.3603 26.4846 11.5509L13.4701 17.6182L5.96285 21.0773C4.81043 21.6079 3.54973 21.7085 2.37752 21.2387C0.305053 20.4077 -0.576701 18.0351 0.394832 16.025C0.860817 15.0603 1.63962 14.3298 2.63495 13.9063L6.16215 12.4097C6.93967 12.0789 7.37003 11.2928 7.63536 10.5147L9.1033 6.21803C9.43331 5.25202 10.1514 4.48445 11.0398 3.9988Z" fill="#464646" style="fill:#464646;fill:color(display-p3 0.2745 0.2745 0.2745);fill-opacity:1;"/>
<path d="M56.0093 8.3353C57.1423 8.3353 58.0607 9.25598 58.0607 10.3917C58.0607 11.5274 57.1423 12.4481 56.0093 12.4481C54.8764 12.4481 53.958 11.5274 53.958 10.3917C53.958 9.25598 54.8764 8.3353 56.0093 8.3353Z" fill="#464646" style="fill:#464646;fill:color(display-p3 0.2745 0.2745 0.2745);fill-opacity:1;"/>
</svg>
